<?xml version="1.0" encoding="utf-8"?>
<!-- Generator: Adobe Illustrator 19.0.0, SVG Export Plug-In . SVG Version: 6.00 Build 0)  -->
<svg version="1.1" id="Layer_1" xmlns="http://www.w3.org/2000/svg" xmlns:xlink="http://www.w3.org/1999/xlink" x="0px" y="0px"
	 viewBox="0 0 2677.2 520.8" style="enable-background:new 0 0 2677.2 520.8;" xml:space="preserve">
<style type="text/css">
	.st0{fill:url(#XMLID_78_);}
	.st1{fill:url(#XMLID_79_);}
</style>
<polygon id="XMLID_12_" points="455.6,0 276.6,420 97.6,0 0,0 0,520.8 74.1,520.8 74.1,119.1 242.7,520.8 276.6,520.8 310.5,520.8 
	479.1,119.1 479.1,520.8 553.2,520.8 553.2,0 "/>
<polygon id="XMLID_6_" points="1864.6,0 1685.6,420 1506.6,0 1409,0 1409,520.8 1483.1,520.8 1483.1,119.1 1651.7,520.8 
	1685.6,520.8 1719.5,520.8 1888.1,119.1 1888.1,520.8 1962.2,520.8 1962.2,0 "/>
<rect id="XMLID_5_" x="623.7" y="0" width="69" height="520.8"/>
<rect id="XMLID_10_" x="1268.6" y="0" width="69" height="520.8"/>
<rect id="XMLID_8_" x="765.2" y="0" width="75" height="520.8"/>
<rect id="XMLID_9_" x="1121.2" y="0" width="75" height="520.8"/>
<polygon id="XMLID_11_" points="840.2,111 1121.2,520.8 1121.2,406 840.2,0 818.6,0 "/>
<linearGradient id="XMLID_78_" gradientUnits="userSpaceOnUse" x1="1925.1316" y1="520.8333" x2="1925.1316" y2="155.2026">
	<stop  offset="0" style="stop-color:#2A7374"/>
	<stop  offset="0.1571" style="stop-color:#286E6E"/>
	<stop  offset="0.3572" style="stop-color:#225E5F"/>
	<stop  offset="0.5806" style="stop-color:#194445"/>
	<stop  offset="0.8192" style="stop-color:#0C2020"/>
	<stop  offset="1" style="stop-color:#000000"/>
</linearGradient>
<rect id="XMLID_37_" x="1888.1" y="155.2" class="st0" width="74.1" height="365.6"/>
<linearGradient id="XMLID_79_" gradientUnits="userSpaceOnUse" x1="1949.2544" y1="582" x2="2359.2544" y2="172">
	<stop  offset="0" style="stop-color:#0FA3A8"/>
	<stop  offset="1" style="stop-color:#00D8A8"/>
</linearGradient>
<polygon id="XMLID_42_" class="st1" points="2192.3,5 2154.3,5 2116.3,5 1888.1,520.8 1962.2,520.8 2154.3,101.7 2346.3,520.8 
	2420.4,520.8 "/>
<rect id="XMLID_35_" x="2347.8" y="0" width="69" height="520.8"/>
<rect id="XMLID_36_" x="2416.8" y="451.8" width="260.4" height="69"/>
</svg>
